<svg width="2002" height="2002" fill="none" xmlns="http://www.w3.org/2000/svg"><path fill-rule="evenodd" clip-rule="evenodd" d="M465 157A210 210 0 00780 26c142-33 293-34 442 0a210 210 0 00315 131 995 995 0 01314 317 210 210 0 00128 316c29 136 30 280 0 422a210 210 0 00-128 316 995 995 0 01-314 317 210 210 0 00-315 131 994 994 0 01-442 0 210 210 0 00-315-131 995 995 0 01-314-317 210 210 0 00-128-316 994 994 0 010-422 210 210 0 00128-316 995 995 0 01314-317zm536 1544a700 700 0 100-1400 700 700 0 000 1400zm-215-140v-361h420v365a600 600 0 10-420-4zm420-674a210 210 0 10-420 0 210 210 0 00420 0z" fill="#39444F"/></svg>